HIERARCHY
ROOT hemi_large
{
	OFFSET 0.000000 0.000000 0.000000
	CHANNELS 6 Xposition Yposition Zposition Yrotation Xrotation Zrotation
	End Site
	{
		OFFSET 0.000000 0.000000 0.000000
	}
}
MOTION
Frames: 174
Frame Time: 0.008333334
-1.561708 0.860619 2.489368 173.166400 -10.898220 -135.021100 
-1.565909 0.867595 2.482407 173.835500 -13.043980 -133.953800 
-1.570110 0.874571 2.475446 174.469400 -15.201420 -132.902400 
-1.573898 0.878739 2.473190 175.574100 -17.380310 -132.060900 
-1.576590 0.879020 2.473113 176.880800 -19.580440 -131.681000 
-1.576407 0.876194 2.471629 177.859500 -21.813930 -131.298800 
-1.574471 0.871910 2.468671 178.602000 -23.545960 -131.071800 
-1.569601 0.866195 2.464495 178.984600 -24.599670 -130.889200 
-1.566136 0.860445 2.464080 179.463000 -25.316500 -130.804400 
-1.561942 0.855325 2.465461 179.989400 -25.655790 -130.685200 
-1.557965 0.851484 2.468794 -179.635300 -25.965700 -130.682800 
-1.555215 0.849298 2.475771 -178.947000 -26.070740 -130.743500 
-1.552465 0.847112 2.482747 -178.258000 -26.175110 -130.805600 
-1.550107 0.846281 2.490589 -177.445100 -26.124050 -130.923000 
-1.547734 0.845188 2.497519 -177.018400 -26.163540 -131.009300 
-1.545813 0.843299 2.502334 -176.410000 -26.344850 -131.202800 
-1.544652 0.841573 2.504201 -176.224700 -26.489440 -131.174500 
-1.545834 0.841531 2.504658 -176.051700 -26.573270 -131.084400 
-1.547393 0.842228 2.504909 -176.138300 -26.652890 -130.942700 
-1.549590 0.842923 2.502424 -176.143000 -26.771300 -130.834200 
-1.550753 0.844066 2.499880 -176.250700 -26.952820 -130.985900 
-1.551216 0.845474 2.498687 -176.162200 -27.129520 -131.170200 
-1.551086 0.848204 2.498941 -176.238200 -27.233340 -131.130400 
-1.551337 0.855311 2.499675 -176.039800 -27.487340 -130.945800 
-1.552032 0.866039 2.501546 -175.735900 -27.798860 -130.685000 
-1.553669 0.882868 2.504902 -175.917400 -28.129490 -129.914700 
-1.556270 0.901159 2.507799 -175.984500 -28.647220 -129.059400 
-1.560076 0.919230 2.512423 -176.096000 -29.234860 -128.196800 
-1.563971 0.934438 2.516939 -175.544100 -29.824370 -127.744700 
-1.567453 0.945933 2.523963 -174.931000 -30.216400 -127.156200 
-1.570652 0.955512 2.532954 -174.157100 -30.377320 -126.971700 
-1.571911 0.960490 2.540215 -173.513500 -30.298030 -126.689800 
-1.574024 0.966326 2.546357 -172.971100 -30.138370 -126.445400 
-1.576100 0.973182 2.551424 -172.288100 -30.008300 -126.308300 
-1.578895 0.978685 2.557230 -171.848100 -29.934720 -126.143200 
-1.581848 0.984456 2.561499 -171.372600 -29.795720 -126.292600 
-1.583412 0.987924 2.568049 -170.603400 -29.752960 -126.480800 
-1.585308 0.990040 2.575276 -169.939100 -29.508940 -126.861100 
-1.585963 0.993629 2.583411 -169.351600 -29.442440 -127.258300 
-1.587049 0.997565 2.590410 -168.731800 -29.574340 -127.368800 
-1.587811 1.003290 2.599709 -168.022300 -29.758180 -127.759600 
-1.591232 1.008291 2.611520 -167.162400 -30.275090 -127.995800 
-1.594956 1.015429 2.621459 -166.467000 -31.119260 -128.314300 
-1.600567 1.021984 2.633837 -165.471300 -32.175780 -128.997100 
-1.608285 1.026797 2.647276 -164.102200 -33.232670 -129.680100 
-1.615952 1.031770 2.661247 -162.998700 -34.313690 -130.321900 
-1.622720 1.034100 2.673513 -161.562200 -35.256500 -131.188600 
-1.627244 1.031943 2.682286 -160.647600 -35.804470 -131.755400 
-1.631768 1.029787 2.691058 -159.720000 -36.344940 -132.336800 
-1.634304 1.026658 2.695530 -159.204900 -36.616820 -132.869000 
-1.634552 1.025201 2.698678 -158.557600 -36.946900 -133.303500 
-1.636632 1.026994 2.703208 -157.966700 -37.490110 -133.786600 
-1.639169 1.030698 2.709759 -157.197500 -38.003140 -134.269300 
-1.641955 1.037203 2.719060 -155.857000 -38.711670 -135.093200 
-1.646125 1.044936 2.730185 -154.622900 -39.418640 -135.684200 
-1.650828 1.053535 2.743965 -153.257400 -40.106900 -136.127100 
-1.655771 1.063802 2.758229 -151.806700 -40.965300 -136.435800 
-1.661291 1.072724 2.771509 -150.428400 -41.681460 -136.840800 
-1.664501 1.079398 2.783536 -148.688800 -42.302220 -137.940300 
-1.668644 1.085075 2.792348 -147.295500 -42.994690 -138.684800 
-1.672211 1.091848 2.799915 -145.852800 -43.618410 -139.367700 
-1.675881 1.097897 2.807651 -144.560100 -44.133480 -139.959000 
-1.678645 1.107122 2.814032 -143.086400 -44.765630 -140.670000 
-1.681248 1.117344 2.821939 -141.580200 -45.325530 -141.241600 
-1.683858 1.126016 2.828966 -139.920100 -46.126250 -142.084500 
-1.686538 1.133586 2.835648 -137.930100 -46.756810 -143.567700 
-1.688705 1.139153 2.839922 -136.242200 -47.476140 -144.671900 
-1.691512 1.143684 2.843031 -134.608900 -48.256960 -145.946600 
-1.695507 1.149694 2.844589 -133.193500 -48.834930 -146.868600 
-1.700341 1.154860 2.848103 -131.917900 -49.376890 -147.417600 
-1.705457 1.160903 2.851256 -130.529400 -49.944310 -148.102800 
-1.710022 1.166144 2.855454 -128.787400 -50.380520 -148.940700 
-1.715713 1.169891 2.859615 -127.325500 -50.887390 -149.397100 
-1.721127 1.171892 2.862439 -125.476300 -51.178960 -150.618200 
-1.727252 1.172587 2.863973 -123.462700 -51.382140 -151.836500 
-1.734250 1.171634 2.864595 -121.625500 -51.604920 -153.340700 
-1.740178 1.168817 2.863789 -119.284400 -51.594760 -155.137900 
-1.745342 1.162817 2.861244 -117.016200 -51.615020 -157.040000 
-1.750529 1.154009 2.855543 -115.067700 -51.592290 -158.777400 
-1.752716 1.145289 2.848178 -113.163600 -51.388240 -160.255500 
-1.753557 1.138284 2.841843 -112.146600 -51.162630 -160.649800 
-1.752469 1.132109 2.835205 -111.766600 -50.920170 -160.457400 
-1.750322 1.128206 2.827633 -111.553200 -50.543520 -160.033700 
-1.747719 1.124516 2.819626 -111.808900 -50.457730 -159.038700 
-1.745618 1.122430 2.813794 -112.159700 -50.375850 -158.155700 
-1.744394 1.121257 2.807090 -112.333400 -50.454830 -157.469900 
-1.743559 1.121156 2.800751 -112.408400 -50.523800 -157.057300 
-1.743932 1.122146 2.794435 -112.731900 -51.075840 -156.344400 
-1.746993 1.122299 2.786296 -112.956500 -51.316860 -156.146200 
-1.751558 1.120478 2.776802 -113.345400 -51.570620 -156.045100 
-1.756170 1.116532 2.766766 -113.302900 -51.552250 -156.287500 
-1.762167 1.110584 2.756554 -113.449400 -51.822480 -156.902300 
-1.768075 1.102185 2.745607 -113.378800 -51.954860 -157.758700 
-1.773557 1.092168 2.732719 -112.940000 -52.162840 -159.157800 
-1.778109 1.080764 2.718734 -112.412400 -52.139430 -160.616700 
-1.780163 1.068429 2.705340 -112.069500 -52.125180 -161.852100 
-1.781470 1.058362 2.692859 -111.978400 -51.894350 -163.063000 
-1.781811 1.049959 2.677913 -112.285300 -51.441590 -163.717700 
-1.780452 1.042541 2.662944 -113.411900 -50.996550 -163.967800 
-1.778015 1.037788 2.648128 -114.856900 -50.357360 -163.769600 
-1.777188 1.036251 2.633669 -116.437500 -49.955110 -163.113200 
-1.777336 1.034469 2.620380 -118.241900 -49.625180 -162.206900 
-1.777744 1.034454 2.608337 -120.006800 -49.250920 -161.067100 
-1.778028 1.032033 2.597620 -121.302900 -48.871250 -160.568500 
-1.777752 1.029374 2.588185 -121.767200 -48.742000 -160.437100 
-1.777439 1.025729 2.581614 -121.786700 -48.452360 -161.061600 
-1.777316 1.022410 2.574189 -121.260300 -48.661440 -161.843000 
-1.778193 1.020397 2.567031 -120.070900 -49.141750 -163.412500 
-1.778756 1.019421 2.556426 -118.552400 -49.734710 -165.326800 
-1.778637 1.019266 2.547031 -116.689500 -50.368870 -167.653100 
-1.778390 1.019698 2.537738 -114.612200 -50.973600 -169.987400 
-1.778509 1.019615 2.531504 -112.852900 -51.323430 -172.011100 
-1.778805 1.019984 2.528159 -111.072900 -51.591460 -173.744900 
-1.779662 1.020702 2.524210 -109.149100 -51.927060 -175.645200 
-1.780199 1.022527 2.520698 -106.842400 -52.025760 -177.795300 
-1.779083 1.022458 2.517786 -104.931200 -51.956360 -179.668400 
-1.778581 1.022692 2.521893 -103.219600 -51.672450 179.001100 
-1.777509 1.023178 2.528845 -101.649700 -51.212400 178.214200 
-1.776952 1.023200 2.534961 -100.089600 -50.836030 177.391400 
-1.775912 1.023151 2.539325 -98.718440 -50.586610 176.741700 
-1.776290 1.024813 2.543567 -97.745270 -50.344540 176.081300 
-1.777216 1.028022 2.543727 -96.893890 -50.273560 175.503100 
-1.779902 1.033406 2.539898 -95.999020 -50.605100 174.541600 
-1.784284 1.042024 2.529725 -95.006590 -51.173580 173.083400 
-1.788894 1.051729 2.518050 -94.031040 -52.019590 171.300000 
-1.792784 1.062228 2.506607 -92.675140 -52.971500 169.313600 
-1.796271 1.072892 2.496718 -90.825680 -53.741520 166.954800 
-1.798442 1.082626 2.489499 -88.688020 -54.427460 164.297800 
-1.798754 1.090125 2.483807 -86.447330 -54.932010 161.784100 
-1.798358 1.094646 2.480731 -83.817810 -55.003020 159.088700 
-1.796509 1.096084 2.478102 -81.690190 -54.913300 157.025800 
-1.794919 1.095224 2.477448 -79.559390 -54.500670 155.051700 
-1.792468 1.093468 2.478706 -78.070980 -54.193570 153.864900 
-1.789182 1.090087 2.482246 -76.406190 -53.754820 152.671700 
-1.785333 1.086416 2.486509 -75.233400 -53.253230 151.858300 
-1.779965 1.082394 2.491998 -73.903870 -52.725460 151.018500 
-1.774501 1.076091 2.500510 -72.497130 -52.307190 150.138700 
-1.768189 1.069211 2.508640 -70.744570 -51.724090 148.919800 
-1.760327 1.061519 2.520229 -68.702210 -51.189850 147.479900 
-1.750699 1.053424 2.531765 -66.563290 -50.441010 145.966100 
-1.740153 1.046965 2.544802 -64.082400 -49.695160 143.959700 
-1.728347 1.038610 2.559341 -61.304110 -48.909360 142.147800 
-1.715439 1.030167 2.575155 -58.830020 -47.831570 140.127900 
-1.700030 1.019718 2.590295 -56.098970 -46.743190 138.435800 
-1.684298 1.007695 2.608678 -53.707180 -45.328520 136.651900 
-1.666616 0.993545 2.628965 -51.189390 -43.900730 135.313200 
-1.647307 0.977750 2.652122 -48.767520 -42.287200 133.978100 
-1.624866 0.959537 2.675706 -46.020780 -40.522490 132.651700 
-1.600335 0.939583 2.698653 -43.398860 -38.555940 131.441100 
-1.574492 0.918672 2.721732 -40.845520 -36.408200 130.018400 
-1.551234 0.899118 2.741241 -38.132900 -34.128910 128.898000 
-1.529237 0.880973 2.755243 -35.718480 -31.760040 127.396200 
-1.514134 0.866229 2.764009 -33.532710 -29.672670 125.770400 
-1.499007 0.849215 2.771765 -31.544770 -27.210940 124.205300 
-1.486736 0.830970 2.775804 -29.835660 -24.848360 122.645000 
-1.475128 0.811508 2.771814 -28.234800 -22.193730 121.413200 
-1.464486 0.789376 2.755670 -27.877530 -19.231230 120.105200 
-1.456128 0.774027 2.740142 -27.293460 -16.543460 118.630500 
-1.450021 0.764898 2.727870 -26.120540 -14.068730 117.180500 
-1.445438 0.757443 2.721317 -25.020450 -11.688690 115.963300 
-1.438419 0.748973 2.713027 -23.935760 -9.586700 114.940200 
-1.431498 0.738768 2.708273 -22.981600 -7.824707 114.396200 
-1.424886 0.728716 2.703338 -22.157260 -6.218903 114.052000 
-1.419798 0.720147 2.700941 -21.578190 -5.080719 113.838700 
-1.415767 0.712570 2.697490 -21.088680 -4.106079 113.610800 
-1.413132 0.705619 2.694487 -20.480100 -3.498505 113.593400 
-1.413778 0.697947 2.692752 -20.396910 -3.212036 113.572900 
-1.413238 0.690493 2.689663 -20.233340 -2.848236 113.555900 
-1.414581 0.683463 2.688850 -20.097720 -2.896576 113.663800 
-1.414504 0.675928 2.688662 -19.817470 -2.940735 113.617600 
-1.414151 0.668371 2.690329 -19.768010 -2.838043 113.559200 
-1.414385 0.661025 2.691288 -19.400050 -2.952881 113.574100 
-1.416562 0.654895 2.693915 -19.417240 -3.229126 113.435200 
-1.419181 0.649956 2.695650 -19.449800 -3.524261 113.343000 
